<svg width="200" height="200" viewBox="0 0 200 200" fill="none" xmlns="http://www.w3.org/2000/svg">
<path d="M148.235 194.706C148.235 199.414 154.708 200 158.238 200H161.181C170.005 199.419 170.004 195.884 170.004 194.706V5.29432C170.585 0.580518 164.118 0 160.002 0H158.261C154.708 0 148.235 0.580518 148.235 5.29432V194.706Z" fill="#E1091D"/>
<path d="M30.0012 194.706C30.0012 199.414 36.474 200 40.0034 200H42.947C51.7707 199.419 51.7706 195.884 51.7706 194.706V5.29432C51.7706 0.580518 45.8842 0 41.7683 0H40.0268C35.882 0 30.0012 0.580518 30.0012 5.29432V194.706Z" fill="#E1091D"/>
<path d="M69.4123 194.706C69.4123 199.414 75.8854 200 79.415 200H82.9444C91.7683 199.419 91.7684 195.884 91.7684 194.706V5.29432C91.7684 0.580518 85.2956 0 81.7662 0H79.415C75.8854 0 69.4123 0.580518 69.4123 5.29432V194.706Z" fill="#E1091D"/>
<path d="M108.824 194.706C108.824 199.414 115.296 200 118.826 200H121.769C130.593 199.419 130.593 195.884 130.593 194.706V5.29432C130.593 0.580518 124.12 0 120.591 0H118.849C115.297 0 108.824 0.580518 108.824 5.29432V194.706Z" fill="#E1091D"/>
<path d="M5.29428 88.825C0.5806 88.825 0 95.2978 0 98.8274V102.357C0.580592 111.181 4.1159 111.181 5.29428 111.181H194.706C199.414 111.181 200 104.708 200 101.178V98.8274C200 95.2978 199.42 88.825 194.706 88.825H5.29428Z" fill="#E1091D"/>
</svg>
