<svg width="198" height="200" viewBox="0 0 198 200" fill="none" xmlns="http://www.w3.org/2000/svg">
<path d="M32.6763 166.662H164.927V33.1391H32.6763V166.662Z" fill="white"/>
<path d="M160.646 162.497L112.628 121.885C112.628 121.885 106.149 115.521 98.8595 115.521C91.4544 115.521 84.9749 121.885 84.9749 121.885L36.9574 162.497L36.8417 162.381L77.107 113.901C77.107 113.901 83.4707 107.306 83.4707 99.9008C83.4707 92.4957 77.107 86.0163 77.107 86.0163L36.8417 37.4202L36.9574 37.3045L84.9749 78.0326C84.9749 78.0326 91.4544 84.5121 98.8595 84.5121C106.149 84.5121 112.628 78.0326 112.628 78.0326L160.646 37.3045L160.877 37.5359L120.496 86.0163C120.496 86.0163 114.248 92.6114 114.248 99.9008C114.248 107.306 120.496 113.901 120.496 113.901L160.877 162.381L160.646 162.497ZM183.093 99.9008C183.093 86.7105 183.671 75.0243 193.275 54.3131C196.052 48.2965 202.184 39.5029 193.159 29.3209C185.754 21.9158 177.423 23.0728 171.754 26.4283C174.993 20.7587 176.266 12.1966 168.861 4.79147C158.795 -4.34921 150.001 1.89884 144.1 4.67576C123.62 14.395 112.05 14.9735 98.9752 14.9735C85.9005 14.9735 74.2144 14.395 53.8503 4.67576C47.9494 1.89884 39.1558 -4.34921 29.0895 4.79147C21.6844 12.3123 22.9571 20.7587 26.1969 26.4283C20.5273 23.0728 12.0809 21.9158 4.79147 29.3209C-4.34921 39.5029 1.89885 48.2965 4.67576 54.3131C14.395 75.0243 14.9735 86.8262 14.9735 99.9008C14.9735 113.091 14.395 124.893 4.67576 145.604C1.89885 151.621 -4.23351 160.414 4.79147 170.596C12.1966 178.002 20.643 176.729 26.1969 173.489C22.9571 179.159 21.6844 187.721 29.0895 195.126C39.1558 204.382 47.9494 198.134 53.8503 195.242C74.3301 185.522 85.9005 184.944 98.9752 184.944C112.05 184.944 123.62 185.407 144.1 195.242C150.001 198.019 158.795 204.267 168.861 195.126C176.266 187.721 174.993 179.274 171.754 173.489C177.423 176.729 185.754 178.002 193.159 170.596C202.3 160.414 196.052 151.505 193.275 145.604C183.555 124.893 183.093 113.091 183.093 99.9008Z" fill="#FF3333"/>
</svg>
