<svg width="200" height="200" viewBox="0 0 200 200" fill="none" xmlns="http://www.w3.org/2000/svg">
<path d="M100.174 0C128.472 0 153.819 11.857 171.875 30.6887H155.556H48.0903L177.257 37.1403L40.7986 38.0122L180.382 45.3357L33.1597 47.0793L100.174 50.2179H99.8264C72.3958 50.2179 50.1736 72.537 50.1736 100.087C50.1736 126.068 69.9653 147.515 95.1389 149.782L11.1111 145.772C3.99306 132.171 0 116.478 0 100.087C0.520833 44.6382 45.1389 0 100.174 0Z" fill="#E1251B"/>
<path d="M188.889 54.2284C195.833 67.8291 200 83.5222 200 99.9128C200 155.187 155.382 200 100.347 200C72.0486 200 46.5278 188.143 28.4722 169.137L44.9653 169.311H152.431L23.2639 162.86L159.896 161.988L20.3125 154.664L167.535 152.921L100.521 149.956C127.951 149.956 150.174 127.637 150.174 100.087C150.174 73.932 130.382 52.6591 105.035 50.3923L188.889 54.2284Z" fill="#E1251B"/>
</svg>
