<svg width="158" height="200" viewBox="0 0 158 200" fill="none" xmlns="http://www.w3.org/2000/svg">
<path d="M157.057 96.0661V0H0.0122291V96.1401C0.0047035 96.2189 0 96.4692 0 96.877C0 101.417 0.984916 125.433 20.3643 155.854C41.5357 189.141 76.4686 199.43 77.9427 199.855L78.4714 200L78.9953 199.855C80.4769 199.431 115.517 189.145 136.701 155.854C157.824 122.689 157.094 97.1347 157.057 96.0661Z" fill="#1D427C"/>
<path d="M73.5449 11.5482C73.2787 11.4967 66.8866 10.3764 59.2557 10.3764C53.2051 10.3764 47.7462 12.1904 45.3465 13.1119C42.9467 12.1894 37.4878 10.3764 31.442 10.3764C23.8101 10.3764 17.4133 11.4967 17.148 11.5482L16.2854 11.7029V52.2102L17.5525 51.9374C17.6043 51.9253 22.8957 50.7928 30.6828 50.7928C36.5349 50.7928 42.6015 52.4202 44.989 53.2752L45.3465 53.4064L45.7039 53.2752C48.0914 52.4193 54.158 50.7928 60.0176 50.7928C67.7963 50.7928 73.0877 51.9253 73.1395 51.9374L74.4075 52.2102V11.7029L73.5449 11.5482Z" fill="#EC8023"/>
<path d="M44.3446 14.9886C41.9251 14.0858 36.9357 12.51 31.4852 12.51C25.5814 12.51 20.3699 13.215 18.4189 13.5112V44.138C20.4602 43.7893 24.859 43.1809 30.7308 43.1809C35.9912 43.1809 41.2554 44.3808 44.3456 45.3304V14.9886H44.3446ZM59.3027 12.51C53.7808 12.51 48.7273 14.129 46.3436 15.0242V45.3661C49.4225 44.4042 54.7422 43.1847 60.0619 43.1847C65.9337 43.1847 70.3277 43.7874 72.37 44.1352V13.5121C70.4143 13.2112 65.2065 12.51 59.3027 12.51" fill="white"/>
<path d="M24.2108 17.6172C23.4564 17.8187 23.0387 18.5077 23.2692 19.1611C23.5044 19.8107 24.303 20.1707 25.0575 19.9729C25.097 19.9607 28.998 19.2755 32.3234 19.2755C35.3431 19.2755 38.7277 20.6422 38.7635 20.6535C39.5019 20.8953 40.3203 20.571 40.5988 19.9326C40.8763 19.2952 40.5 18.5865 39.7634 18.3408C39.5969 18.2855 35.8708 16.8128 32.3225 16.8128C28.5578 16.8138 24.3858 17.574 24.2108 17.6172V17.6172ZM24.2108 23.6983C23.4564 23.9036 23.0387 24.5926 23.2692 25.246C23.5044 25.8909 24.303 26.2593 25.0575 26.0531C25.097 26.0456 28.998 25.3603 32.3234 25.3603C35.3431 25.3603 38.7277 26.7262 38.7635 26.7384C39.5019 26.9755 40.3203 26.6512 40.5988 26.0137C40.8763 25.3772 40.5 24.6676 39.7634 24.4304C39.5969 24.3742 35.8708 22.894 32.3225 22.894C28.5578 22.8949 24.3858 23.6551 24.2108 23.6983V23.6983ZM24.2108 29.7869C23.4564 29.9894 23.0387 30.6821 23.2692 31.328C23.5044 31.9767 24.303 32.3451 25.0575 32.1389C25.097 32.1314 28.998 31.4414 32.3234 31.4414C35.3431 31.4414 38.7277 32.8082 38.7635 32.8195C39.5019 33.0613 40.3203 32.737 40.5988 32.0986C40.8763 31.4574 40.5 30.7524 39.7634 30.5153C39.5969 30.4637 35.8708 28.9788 32.3225 28.9788C28.5578 28.9798 24.3858 29.7363 24.2108 29.7869V29.7869ZM24.2108 35.8689C23.4564 36.0742 23.0387 36.767 23.2692 37.4129C23.5044 38.0616 24.303 38.4272 25.0575 38.2247C25.097 38.2172 28.998 37.5235 32.3234 37.5235C35.3431 37.5235 38.7277 38.8968 38.7635 38.9053C39.5019 39.1471 40.3203 38.8265 40.5988 38.1844C40.8763 37.5469 40.5 36.8345 39.7634 36.6011C39.5969 36.5448 35.8708 35.0599 32.3225 35.0599C28.5578 35.0599 24.3858 35.8249 24.2108 35.8689V35.8689ZM66.6929 17.6172C67.4482 17.8187 67.865 18.5077 67.6345 19.1611C67.3993 19.8107 66.6016 20.1707 65.8472 19.9729C65.8105 19.9607 61.9056 19.2755 58.5803 19.2755C55.5644 19.2755 52.1797 20.6422 52.144 20.6535C51.4055 20.8953 50.5834 20.571 50.3087 19.9326C50.0312 19.2952 50.4037 18.5865 51.1431 18.3408C51.3011 18.2855 55.0366 16.8128 58.5803 16.8128C62.3496 16.8138 66.5169 17.574 66.6929 17.6172ZM66.6929 23.6983C67.4482 23.9036 67.865 24.5926 67.6345 25.246C67.3993 25.8909 66.6016 26.2593 65.8472 26.0531C65.8105 26.0456 61.9056 25.3603 58.5803 25.3603C55.5644 25.3603 52.1797 26.7262 52.144 26.7384C51.4055 26.9755 50.5834 26.6512 50.3087 26.0137C50.0312 25.3772 50.4037 24.6676 51.1431 24.4304C51.3011 24.3742 55.0366 22.894 58.5803 22.894C62.3496 22.8949 66.5169 23.6551 66.6929 23.6983V23.6983ZM66.6929 29.7869C67.4482 29.9894 67.865 30.6821 67.6345 31.328C67.3993 31.9767 66.6016 32.3451 65.8472 32.1389C65.8105 32.1314 61.9056 31.4414 58.5803 31.4414C55.5644 31.4414 52.1797 32.8082 52.144 32.8195C51.4055 33.0613 50.5834 32.737 50.3087 32.0986C50.0312 31.4574 50.4037 30.7524 51.1431 30.5153C51.3011 30.4637 55.0366 28.9788 58.5803 28.9788C62.3496 28.9798 66.5169 29.7363 66.6929 29.7869ZM66.6929 35.8689C67.4482 36.0742 67.865 36.767 67.6345 37.4129C67.3993 38.0616 66.6016 38.4272 65.8472 38.2247C65.8105 38.2172 61.9056 37.5235 58.5803 37.5235C55.5644 37.5235 52.1797 38.8968 52.144 38.9053C51.4055 39.1471 50.5834 38.8265 50.3087 38.1844C50.0312 37.5469 50.4037 36.8345 51.1431 36.6011C51.3011 36.5448 55.0366 35.0599 58.5803 35.0599C62.3496 35.0599 66.5169 35.8249 66.6929 35.8689Z" fill="#1D427C"/>
<path d="M133.571 153.641C114.544 183.548 82.9651 194.449 78.5711 195.847C74.2006 194.447 42.7247 183.548 23.7057 153.641C4.63295 123.7 3.93777 99.6911 3.93777 96.4176C3.93777 96.1842 3.94154 96.0539 3.94154 96.037V62.0289H153.323V95.9667C153.323 95.9901 153.335 96.1214 153.335 96.366C153.336 99.7267 152.631 123.715 133.571 153.641" fill="white"/>
<path d="M146.284 89.58C145.512 86.7808 144.095 85.5378 142.208 84.5413C136.999 81.789 130.198 83.7211 124.234 85.7403C119.733 87.272 118.374 87.7323 113.274 88.5113C109.419 89.101 96.5356 90.764 92.4596 87.4061C91.8792 86.9233 91.2922 85.8696 91.2329 85.1938C91.1163 83.796 91.7522 82.1246 92.2413 81.595C93.2714 80.47 95.6702 79.9282 99.5788 79.9282L109.555 80.0838C110.179 80.8835 111.775 82.1696 115.828 83.033C122.271 84.4063 129.359 82.1734 129.359 82.1734C129.359 82.1734 128.186 81.9437 127.214 81.2153C126.352 80.5741 126.427 79.6076 126.427 79.6076C126.427 79.6076 127.845 80.2891 129.915 80.2301C132.489 80.1541 133.69 78.9345 136.093 78.3261C138.497 77.7159 141.178 78.2193 141.178 78.2193C141.178 78.2193 138.747 75.6291 136.335 75.1698C133.936 74.7152 130.936 75.3282 130.936 75.3282C130.936 75.3282 131.688 74.9917 132.581 74.1883C133.301 73.5434 133.443 72.4428 133.443 72.4428C133.443 72.4428 130.563 73.5518 127.643 73.4009C124.723 73.2499 124.937 72.1963 119.268 72.0425C114.969 71.931 111.417 74.477 109.947 75.7163C105.352 75.4163 101.733 75.2532 99.6108 75.2532C93.7709 75.2532 90.3976 76.2075 88.3318 78.4396C86.6113 80.3051 85.8615 82.7236 86.1117 85.6259C86.3018 87.8786 87.3111 89.775 89.1135 91.2561C94.5639 95.753 109.189 94.3759 114.366 93.461C120.162 92.441 121.894 91.9929 125.251 90.8877C125.251 90.8849 125.441 90.8249 125.441 90.8249C128.04 89.9531 135.942 87.3255 139.256 89.0785C139.931 89.43 140.392 90.0956 140.673 91.1099C140.8 91.5683 140.86 91.9761 140.86 92.3567C140.86 93.0419 140.653 93.611 140.224 94.1303C137.205 97.8088 125.854 98.4378 120.923 98.6993C120.383 98.5681 117.09 97.8313 112.712 97.8088C109.781 97.7919 107.329 97.9794 104.735 98.1725C100 98.5287 95.1011 98.8971 86.965 97.97C83.1899 97.5388 79.6548 96.8545 76.9888 96.0698C76.8618 95.0602 76.3934 94.1022 75.3802 92.9697C77.3312 93.5988 79.8683 91.4614 80.5804 90.3965C80.5729 90.2887 77.1158 89.3785 76.9089 87.1417C76.9051 87.0705 79.3566 87.3442 80.3772 83.9901C77.9295 82.6683 78.6962 82.1809 77.5203 80.5338C76.4837 79.0845 74.9823 78.3524 73.131 78.3993C73.8817 78.3008 73.9494 78.3993 74.7641 77.9924C75.8289 77.4571 76.5674 76.0004 77.6247 76.0594C75.4912 72.7344 69.7661 72.2985 67.3909 72.9987C68.0033 72.2432 68.9402 71.4032 68.9524 70.3664C65.787 71.2373 62.6874 69.5996 59.4937 70.193C56.8475 70.6879 55.3386 71.7594 54.5117 74.2661H54.3932C53.5588 71.7604 52.0537 70.6879 49.4037 70.193C46.2176 69.5996 43.1114 71.2373 39.9487 70.3664C39.9647 71.4032 40.8979 72.2432 41.5056 72.9987C39.1341 72.2985 33.409 72.7344 31.2755 76.0594C32.3366 76.0004 33.0713 77.4571 34.1324 77.9924C35.0731 78.4593 35.2603 78.3636 35.7645 78.3993C33.9217 78.3524 32.4156 79.0845 31.378 80.5338C30.1937 82.1809 30.9688 82.6683 28.5174 83.9901C29.5427 87.3442 31.9979 87.0705 31.9932 87.1417C31.7825 89.3785 28.3264 90.2887 28.3142 90.3965C29.03 91.4605 31.5643 93.5988 33.5228 92.9697C31.918 94.7584 31.6518 96.1251 32.0168 97.9269C29.5258 96.0426 27.0706 93.9644 25.7639 92.2423C25.4582 91.798 24.4808 88.5957 23.8336 86.4771L23.3049 84.7504L23.0472 83.8317C22.2683 80.9772 21.5138 78.5867 20.211 78.2699C19.5808 78.1159 18.9312 78.0569 18.2835 78.0946C17.8348 77.3943 17.2073 76.6575 16.4764 76.4278C14.9666 75.9722 14.2356 76.3013 14.2356 76.3013C14.2356 76.3013 15.4595 77.1768 15.8725 78.0749C15.9759 78.3046 16.0399 78.5267 16.0832 78.7245C15.8263 78.8655 15.5829 79.0296 15.356 79.2148L15.245 79.302C15.0898 79.4248 14.8791 79.5992 14.6533 79.8017C14.5498 79.7698 14.4464 79.7454 14.3391 79.7342C12.7738 79.5279 12.1059 79.9798 12.1059 79.9798C12.1059 79.9798 12.9563 80.395 13.5884 80.9744C13.0438 81.7299 12.5904 82.6993 12.5904 83.8992C12.5904 84.0145 12.6026 84.1363 12.6139 84.2638C11.12 84.3735 10.5641 84.9172 10.5641 84.9172C10.5641 84.9172 12.0175 85.3081 12.7249 85.9981C12.8011 86.0768 12.8726 86.1565 12.9318 86.2315C12.8641 86.3102 12.8124 86.3655 12.8124 86.3655C12.5191 86.8345 12.3675 87.3776 12.3759 87.9301C12.3759 89.2322 13.1068 90.6346 14.1162 91.557L17.0559 93.9794C18.117 96.3436 19.2919 98.4218 20.0633 99.2965C20.306 99.5927 21.9466 102.412 23.6869 105.394C23.9173 105.789 24.1525 106.197 24.3943 106.609C24.7677 108.437 25.1929 110.714 25.3792 112.504C25.7244 115.723 25.3952 119.317 25.3952 119.317C25.3952 119.317 27.4892 119.214 28.4383 117.856C28.4581 117.821 29.2088 120.085 29.1015 122.635C29.014 124.52 28.5098 127.136 28.5098 127.136C28.5098 127.136 30.5521 126.056 32.0854 124.702C32.8596 124.024 33.6385 122.9 34.1155 122.164C35.8003 123.233 40.6308 121.521 43.038 120.561C43.5074 121.511 44.1546 122.568 45.0436 123.762C45.3973 122.323 46.9391 121.601 47.654 120.45C47.8685 120.446 48.0905 120.446 48.3097 120.446C48.3972 122.022 47.94 123.503 49.4338 126.451C49.859 127.287 51.937 130.375 53.4459 131.954C52.8787 134.626 51.7903 139.495 50.669 143.482C49.3821 148.043 48.3407 150.308 47.749 151.361C46.0247 151.445 42.8781 151.551 41.8772 151.507C39.4822 151.392 37.7052 151.896 36.6055 152.995C36.5227 153.075 36.4578 153.158 36.3873 153.242C35.5519 153.356 34.5952 153.618 34.075 154.2C33.0299 155.379 33.0261 156.18 33.0261 156.18C33.0261 156.18 34.329 155.429 35.3186 155.429C35.3939 155.429 35.4616 155.438 35.5293 155.443V155.645C35.5453 155.878 35.6761 156.25 35.899 156.706C35.7393 156.817 35.5961 156.95 35.4738 157.101C34.5134 158.343 34.5642 159.15 34.5642 159.15C34.5642 159.15 35.788 158.328 36.7729 158.25C37.0796 158.74 37.4239 159.244 37.7908 159.735C37.7466 159.782 37.6986 159.833 37.6675 159.885C36.8021 161.203 36.9169 161.999 36.9169 161.999C36.9169 161.999 37.8858 161.238 38.8039 160.99C39.1181 161.346 39.4238 161.668 39.7173 161.92C41.1594 163.187 44.7388 162.367 49.2758 161.163L52.0847 160.47C54.0715 160.103 55.3029 159.312 56.2125 157.828C56.4308 157.478 56.6255 156.904 56.9312 155.985L57.1937 155.201C57.8211 153.444 58.3103 152.328 59.5539 150.335C59.5972 150.276 60.8135 148.325 62.4663 145.639C63.9319 144.425 65.6995 143.016 66.9826 142.145C68.9449 140.83 72.8507 138.842 72.8507 138.842C72.8507 138.842 71.8103 137.157 70.2562 136.922C70.2242 136.919 72.2355 134.883 73.9203 134.16C75.8148 133.336 78.2663 132.889 78.2663 132.889C78.2663 132.889 77.3726 131.069 75.9936 130.184C76.5693 129.995 77.0942 129.663 77.7451 129.234C81.0423 127.089 83.474 127.168 85.7703 127.809C85.8578 126.328 85.4843 125.417 84.1965 124.558C85.2811 124.104 86.4015 123.707 87.5896 123.426C88.3403 124.712 89.1907 126.134 89.5754 126.681C91.2762 129.083 93.8349 132.39 95.9054 134.457C95.9562 134.507 95.9806 134.602 95.9806 134.738C95.9806 135.6 94.9233 137.991 94.3165 139.357L93.7991 140.538C93.7991 140.543 91.7183 145.42 91.1106 146.841C89.899 146.911 86.3827 147.103 85.1513 147.039C82.8155 146.932 81.0875 147.42 80.0151 148.484C79.8842 148.612 79.7646 148.751 79.6576 148.9C78.7874 149.053 77.7461 149.37 77.2296 150.027C76.2523 151.268 76.2918 152.062 76.2918 152.062C76.2918 152.062 77.5476 151.243 78.5363 151.184C78.6924 151.175 78.8354 151.18 78.9746 151.191C79.0142 151.448 79.1571 151.824 79.3801 152.264C79.1496 152.432 78.9464 152.616 78.8044 152.838C77.938 154.153 78.0499 154.944 78.0499 154.944C78.0499 154.944 79.2296 154.019 80.2145 153.876C80.2502 153.871 80.2813 153.871 80.3217 153.866C80.5569 154.227 80.8147 154.596 81.0762 154.953C80.9834 155.045 80.8984 155.145 80.8222 155.252C79.9558 156.571 80.0668 157.369 80.0668 157.369C80.0668 157.369 81.1994 156.477 82.1646 156.309C82.4656 156.654 82.76 156.958 83.0338 157.2C84.4128 158.412 87.36 157.688 91.3731 156.538L94.2337 155.795C96.1678 155.434 97.3719 154.667 98.2628 153.218L99.0125 151.602C99.3662 150.787 99.7717 149.859 100.077 149.377C100.542 148.649 101.031 147.769 101.528 146.82C102.098 146.329 102.678 145.851 103.268 145.385C104.549 144.409 107.798 142.624 107.798 142.624C107.798 142.624 107.15 141.205 105.822 141.071C105.806 141.067 107.115 139.617 108.684 138.715C109.796 138.07 112.005 137.691 112.005 137.691C112.005 137.691 110.479 136.404 109.323 135.9C108.858 135.703 108.249 135.565 107.674 135.465C107.599 134.807 107.254 134.071 106.617 133.095C105.478 131.335 107.146 127.559 108.341 125.421C108.945 126.267 110.026 127.677 111.83 129.672C111.83 129.672 117.619 135.98 118.894 137.376C118.25 139.958 117.469 142.503 116.554 145.003C115.628 147.527 114.305 150.161 113.63 151.46C112.236 151.535 109.074 151.698 107.917 151.645C105.585 151.53 103.857 152.018 102.78 153.087C102.613 153.254 102.464 153.438 102.335 153.637C101.549 153.826 100.694 154.152 100.254 154.734C99.2994 155.992 99.3559 156.793 99.3559 156.793C99.3559 156.793 100.305 155.904 101.584 155.874C101.647 155.874 101.699 155.878 101.756 155.878C101.815 156.146 101.965 156.512 102.187 156.938C101.964 157.09 101.77 157.281 101.616 157.502C100.754 158.819 100.865 159.615 100.865 159.615C100.865 159.615 102.044 158.681 103.026 158.542C103.062 158.535 103.097 158.535 103.129 158.531C103.436 158.99 103.764 159.461 104.102 159.905C104.097 159.914 104.09 159.921 104.082 159.927C103.216 161.237 103.332 162.038 103.332 162.038C103.332 162.038 104.201 161.35 105.072 161.069C105.323 161.35 105.574 161.602 105.8 161.801C107.182 163.016 110.142 162.295 114.166 161.139L116.999 160.395C118.938 160.038 120.141 159.267 121.027 157.817C121.421 157.172 123.181 153.087 123.665 151.906C124.541 149.775 125.474 147.668 126.463 145.588C126.94 145.183 127.384 144.826 127.741 144.574C129.328 143.479 132.716 141.554 132.716 141.554C132.716 141.554 132.04 140.109 130.738 140.002C130.721 139.998 132.069 138.715 133.411 137.861C134.655 137.064 136.919 136.622 136.919 136.622C136.919 136.622 135.286 135.382 134.134 134.887C133.455 134.594 132.493 134.407 131.81 134.302C131.607 133.343 131.123 133.022 130.392 132.655C129.745 132.324 128.859 131.879 127.503 130.291C125.768 128.252 125.501 124.356 125.501 120.468C125.501 119.613 125.518 118.758 125.525 117.922L125.533 114.192C125.421 109.806 124.778 106.746 124.167 104.725C129.907 104.208 140.423 103.048 144.733 97.7985C146.025 96.2226 146.68 94.3778 146.68 92.367C146.672 91.4246 146.538 90.4875 146.284 89.58" fill="#1D427C"/>
<path d="M105.117 137.282C105.876 136.573 106.261 136.189 106.261 135.69C106.261 135.264 105.978 134.744 105.411 133.867C104.977 133.205 104.806 132.408 104.806 131.563C104.806 128.748 106.686 125.358 107.429 124.131C107.218 123.866 106.912 123.482 106.543 122.975C106.344 122.844 106.173 122.726 106.07 122.654C105.59 122.314 104.354 121.28 103.582 120.271C103.475 120.129 103.368 119.95 103.252 119.76C101.66 119.713 97.9495 119.606 94.1237 120.766C95.3033 121.439 95.577 122.313 95.6288 123.438C93.1105 122.892 90.9883 122.86 89.0777 123.137C89.7456 124.27 90.4286 125.406 90.7465 125.858C92.4144 128.212 94.9139 131.439 96.9166 133.447C97.2421 133.771 97.386 134.2 97.386 134.725C97.386 135.965 96.6024 137.733 95.6297 139.935L95.118 141.103L92.0823 148.215L91.6374 148.241C91.4342 148.257 86.6479 148.546 85.0816 148.468C83.3743 148.384 82.0658 148.677 81.2643 149.299C81.3593 149.622 81.427 150.051 81.3038 150.455C81.1448 150.989 80.8118 151.254 80.5409 151.392C80.5766 151.471 80.6161 151.551 80.6679 151.644C81.6058 151.329 82.5032 151.239 82.5032 151.239C82.5032 151.239 83.0196 151.92 82.8099 152.771C82.6424 153.42 82.3292 153.761 82.1062 153.93C82.1702 154.025 82.2341 154.112 82.3019 154.203C83.362 153.772 84.5219 153.662 84.5219 153.662C84.5219 153.662 85.0675 154.484 84.8888 155.379C84.7891 155.864 84.5464 156.136 84.3206 156.298C85.6037 156.706 88.9131 155.76 90.9751 155.165L93.9666 154.389C95.5037 154.103 96.3616 153.564 97.0295 152.476L97.6955 151.04C98.069 150.174 98.4942 149.186 98.8686 148.61C99.7857 147.165 100.831 145.053 101.836 143.006C103.147 140.349 104.283 138.049 105.117 137.282V137.282ZM47.9964 118.928C48.0039 118.96 47.9964 118.987 48.0039 119.015H48.0274C48.0162 118.987 48.0039 118.96 47.9964 118.928Z" fill="#F19320"/>
<path d="M41.8301 110.721C40.9007 112.11 39.2197 112.761 37.0429 113.026C37.4559 110.863 37.0796 109.382 36.28 107.669C35.5811 106.157 33.6658 103.191 33.0976 101.509C32.9386 101.034 32.7881 100.594 32.6451 100.175C29.618 97.9813 26.2926 95.3124 24.621 93.1038C24.2277 92.5817 23.6313 90.7209 22.4592 86.8924L21.9353 85.1703L21.6643 84.2085C20.8939 81.3906 20.2853 79.8617 19.861 79.6592C19.5923 79.5942 19.3185 79.5518 19.0426 79.5326V79.5373C19.0426 79.5373 18.9071 80.4007 17.4538 80.3323C17.1546 80.3176 16.8637 80.2294 16.6071 80.0754C16.4871 80.1498 16.373 80.2331 16.2657 80.3247L16.1424 80.4157L15.9279 80.5938C16.7821 81.3662 17.3936 82.3637 17.3936 82.3637C17.3936 82.3637 17.0681 83.2467 15.9599 83.4445C15.1575 83.5833 14.5376 83.0171 14.5376 83.0171C14.5376 83.0171 14.5451 82.7396 14.4341 82.344C14.0659 83.0462 13.9536 83.8539 14.1162 84.6294C15.2403 85.2078 16.2139 86.2568 16.2139 86.2568C16.2139 86.2568 16.1904 87.0883 15.0305 87.6695C14.594 87.8945 14.1444 87.7642 13.8546 87.6255C13.7117 88.4767 14.1961 89.685 15.086 90.4996L18.2204 93.0851L18.2919 93.2397C19.2891 95.4811 20.4574 97.5791 21.1404 98.3553C21.3981 98.6403 22.3322 100.227 24.9257 104.678C28.3659 110.58 33.567 119.501 34.9056 120.98C35.4221 121.464 38.9695 120.636 42.4698 119.246C41.2224 115.796 42.3071 113.686 41.8301 110.721V110.721ZM144.909 89.9484C144.273 87.6236 143.193 86.6665 141.544 85.7956C136.844 83.3095 130.389 85.1572 124.708 87.0864C119.873 88.7288 118.538 89.145 113.505 89.9128C108.376 90.7012 95.9721 92.1336 91.5621 88.4954C90.6769 87.7717 89.9103 86.374 89.8106 85.3091C89.6713 83.5551 90.4145 81.4694 91.1934 80.6219C92.5442 79.1455 95.134 78.4893 99.592 78.4893C99.592 78.4893 106.278 78.5961 109.973 78.6505L110.755 77.9549L109.992 77.1422C105.373 76.8375 101.734 76.6716 99.6239 76.6716C94.2253 76.6716 91.1652 77.4881 89.4023 79.4033C87.9602 80.9594 87.344 83.0105 87.551 85.4966C87.71 87.3536 88.5491 88.9172 90.0382 90.1443C94.6749 93.9691 108.273 93.0776 114.129 92.0408C119.833 91.0433 121.53 90.6037 124.812 89.5219L125.002 89.4553C128.034 88.4457 136.083 85.7619 139.944 87.8036C140.981 88.3539 141.68 89.3082 142.066 90.7265C142.542 92.4485 142.308 93.8538 141.347 95.0255C137.914 99.2093 126.869 99.7999 120.934 100.12L120.807 100.125L120.707 100.101C120.667 100.092 117.224 99.2543 112.714 99.2262C109.847 99.2093 107.422 99.3968 104.856 99.5862C100.053 99.9517 95.0822 100.323 86.8107 99.3846C83.1401 98.9599 79.6717 98.2962 76.9625 97.5229C76.7913 98.6281 76.3501 99.8824 75.7988 101.51C75.2306 103.189 73.3238 106.154 72.6202 107.666C71.8225 109.38 71.4453 110.86 71.8498 113.027C69.6767 112.757 67.9957 112.109 67.0663 110.718C66.4153 114.788 68.7229 117.231 63.8717 123.755C63.3825 121.783 60.6658 121.162 60.9038 118.929C60.0534 121.25 61.4249 122.595 59.4739 126.447C58.9847 127.414 56.2633 131.412 54.7902 132.577C54.1947 135.348 53.1421 140.015 52.065 143.859C50.5881 149.102 49.384 151.472 48.7923 152.423L48.5975 152.744L48.2241 152.764C46.6625 152.843 42.9881 152.978 41.8245 152.927C40.2112 152.848 38.9441 153.097 38.105 153.631C38.1849 154.031 38.2282 154.6 37.978 155.015C37.692 155.511 37.2828 155.73 37.0721 155.817C37.1041 155.905 37.1511 155.999 37.2075 156.109C38.2526 155.813 39.3091 155.789 39.3091 155.789C39.3091 155.789 39.7418 156.664 39.2931 157.722C39.1106 158.153 38.8603 158.367 38.6694 158.475C38.7719 158.622 38.8754 158.761 38.9798 158.901C40.088 158.415 41.3871 158.287 41.3871 158.287C41.3871 158.287 41.8885 158.939 41.562 160.285C41.4595 160.702 41.2328 160.914 41.0381 161.021C42.4999 161.472 46.607 160.385 48.9164 159.772L51.8326 159.057C53.4177 158.762 54.3113 158.208 55.0028 157.073C55.142 156.847 55.3762 156.146 55.5785 155.53C55.5785 155.53 55.856 154.726 55.856 154.719C56.5032 152.896 57.0403 151.658 58.3507 149.571C61.3384 144.81 70.1659 130.418 70.5224 129.261C70.5394 129.202 70.5394 129.131 70.5394 129.048C70.5394 128.284 70.1659 126.601 69.8639 125.531L69.673 124.851L99.925 116.034L98.1649 113.005L99.2063 112.068C99.2966 112.135 101.495 113.727 102.702 114.93C103.767 115.987 104.792 117.621 105.872 119.348L106.425 120.227C107.649 122.162 108.853 123.593 108.868 123.605L108.912 123.66L108.943 123.717C108.952 123.732 109.909 125.39 112.9 128.712L120.476 136.966L120.394 137.337C120.381 137.371 119.483 141.22 117.911 145.49C116.877 148.31 115.336 151.314 114.724 152.475L114.533 152.836L114.132 152.856C112.673 152.942 109.158 153.125 107.863 153.07C106.257 152.991 105.015 153.239 104.2 153.778C104.311 154.154 104.415 154.736 104.192 155.188C103.946 155.693 103.581 155.971 103.375 156.103C103.406 156.167 103.445 156.233 103.485 156.308C104.427 155.991 105.336 155.9 105.336 155.9C105.336 155.9 105.793 156.649 105.646 157.593C105.539 158.225 105.21 158.509 104.966 158.641C105.055 158.766 105.15 158.895 105.241 159.016C106.381 158.469 107.799 158.328 107.799 158.328C107.799 158.328 108.276 158.984 108.113 160.002C108.041 160.473 107.72 160.785 107.466 160.977C108.936 161.15 111.879 160.304 113.779 159.755L116.747 158.988C118.279 158.704 119.138 158.166 119.813 157.068C120.103 156.598 121.732 152.857 122.348 151.363C124.143 146.976 126.785 141.429 128.502 138.465L129.455 136.967C130.016 136.131 130.504 135.413 130.46 134.922C130.401 134.25 130.361 134.232 129.755 133.923C129.039 133.562 127.958 133.018 126.417 131.211C123.95 128.317 124.029 122.778 124.101 117.901L124.108 114.224C123.982 109.398 123.2 106.175 122.559 104.322L122.266 103.463L123.18 103.384C128.471 102.912 139.488 101.934 143.632 96.8901C145.191 94.9759 145.632 92.5807 144.909 89.9484" fill="#EC8023"/>
<path d="M116.333 33.1213C116.962 33.9305 117.476 34.8219 117.861 35.7705C117.362 35.8418 116.853 35.8849 116.333 35.8849C115.812 35.8849 115.304 35.8455 114.803 35.778C115.192 34.8288 115.707 33.9354 116.333 33.1213" fill="white"/>
<path d="M109.98 32.7923C108.839 31.9224 107.885 30.832 107.176 29.5863C107.196 29.5863 107.215 29.5825 107.235 29.5825C108.686 29.5825 110.076 29.8834 111.355 30.4187C110.834 31.1717 110.374 31.9654 109.98 32.7923V32.7923ZM100.89 31.7274C102.468 35.0591 105.092 37.7883 108.364 39.5024C108.359 39.688 108.344 39.8737 108.344 40.0611C108.344 43.6356 109.456 46.9484 111.351 49.6923C110.055 50.2435 108.658 50.536 107.235 50.536C101.439 50.536 96.72 45.8404 96.72 40.0611C96.7191 36.6601 98.3634 33.6397 100.89 31.7274ZM125.435 29.5816L125.49 29.5853C124.785 30.83 123.83 31.9173 122.686 32.7801C122.302 31.9595 121.852 31.1705 121.343 30.4206C122.637 29.8708 124.028 29.5855 125.435 29.5816ZM107.234 23.0289C106.789 23.0289 106.345 23.0646 105.903 23.0964C106.57 17.9021 110.953 13.9752 116.336 13.9752C121.679 13.9752 126.096 17.9734 126.752 23.1246L125.433 23.0289C122.194 23.0289 119.073 23.9392 116.351 25.6425C113.621 23.929 110.46 23.0227 107.234 23.0289V23.0289ZM124.31 39.5071C127.574 37.7778 130.191 35.0451 131.771 31.7152C134.401 33.6941 135.95 36.7314 135.95 40.0611C135.95 45.8404 131.231 50.536 125.434 50.536C123.972 50.536 122.582 50.2435 121.318 49.7045C123.287 46.8722 124.336 43.5064 124.325 40.0611L124.31 39.5071ZM115.014 41.3876L116.336 41.486C116.781 41.486 117.219 41.4542 117.655 41.4195C117.482 42.7862 117.033 44.104 116.336 45.2939C115.638 44.0929 115.188 42.7647 115.014 41.3876V41.3876ZM133.4 25.0004C133.407 24.8194 133.427 24.6366 133.427 24.4538C133.427 15.0598 125.759 7.41884 116.336 7.41884C106.913 7.41884 99.2411 15.0598 99.2411 24.4538L99.2608 25.0041C93.8424 27.8661 90.1473 33.5394 90.1473 40.0611C90.1473 49.4514 97.8103 57.0924 107.234 57.0924C110.488 57.0924 113.619 56.1775 116.344 54.4638C119.062 56.1814 122.215 57.0931 125.434 57.0924C134.853 57.0924 142.525 49.4514 142.525 40.0611C142.526 33.7663 138.957 27.9336 133.4 25.0004" fill="#EC8023"/>
<path d="M119.582 41.2451C120.534 41.0571 121.468 40.7883 122.375 40.4417C122.326 43.4658 121.356 46.4037 119.594 48.8664C118.824 48.3559 118.127 47.7446 117.521 47.0487C118.688 45.3185 119.397 43.322 119.582 41.2451V41.2451ZM116.333 9.42682C124.7 9.42682 131.509 16.2119 131.509 24.5495C131.509 32.8907 124.699 39.6768 116.333 39.6768L114.942 39.5746C114.989 38.6475 115.157 37.7447 115.444 36.8785L116.333 36.9376C123.182 36.9376 128.759 31.3786 128.759 24.5495C128.759 17.724 123.182 12.166 116.333 12.166C113.225 12.1493 110.225 13.3021 107.933 15.3939C105.641 17.4856 104.226 20.3623 103.97 23.4489C103.015 23.6378 102.077 23.9082 101.169 24.257C101.328 16.0535 108.061 9.42682 116.333 9.42682" fill="white"/>
<path d="M125.43 25.0322L126.818 25.1354C126.769 26.0526 126.598 26.9593 126.309 27.8314L125.43 27.7752C123.596 27.7752 121.784 28.2036 120.139 28.9798C119.501 28.2435 118.801 27.5638 118.046 26.9483C120.302 25.6893 122.845 25.0295 125.43 25.0322V25.0322ZM107.234 55.2878C98.8639 55.2878 92.0541 48.498 92.0541 40.1605C92.0541 31.822 98.8639 25.0322 107.234 25.0322C113.254 25.0322 118.588 28.4923 121.048 33.9041C120.23 34.3128 119.361 34.6287 118.442 34.8153C117.436 32.7033 115.848 30.9199 113.864 29.6733C111.879 28.4267 109.58 27.7684 107.234 27.7752C100.381 27.7752 94.8029 33.3341 94.8029 40.1596C94.8029 46.985 100.381 52.543 107.234 52.543C109.082 52.543 110.898 52.1109 112.554 51.3234C113.191 52.0573 113.889 52.7368 114.639 53.3548C112.38 54.6262 109.829 55.2922 107.234 55.2878" fill="white"/>
<path d="M105.125 29.8947C106.06 31.822 107.474 33.4791 109.233 34.7084C108.923 35.6261 108.693 36.5682 108.546 37.5338C105.896 35.9554 103.795 33.6075 102.523 30.8049C103.342 30.3971 104.208 30.0803 105.125 29.8947V29.8947ZM125.43 55.2878C117.06 55.2878 110.251 48.498 110.251 40.1605C110.251 36.9807 111.224 33.9847 113.052 31.4218C113.822 31.9326 114.521 32.544 115.129 33.2394C113.738 35.2812 112.996 37.6928 112.999 40.1605C112.999 46.9859 118.576 52.544 125.429 52.544C132.279 52.544 137.856 46.9859 137.856 40.1605C137.856 36.0545 135.857 32.3292 132.508 30.009C132.819 29.0841 133.051 28.1345 133.2 27.1705C137.733 29.8787 140.606 34.8396 140.606 40.1605C140.607 48.4971 133.798 55.2878 125.43 55.2878" fill="white"/>
<path d="M65.6985 85.2134C66.5969 84.591 68.7417 82.8174 67.5978 80.6641C66.3824 78.388 63.5857 79.3142 62.756 79.6545C62.6403 79.5364 56.4543 76.8553 56.3705 76.9022C56.4298 76.8628 53.9558 79.7538 53.9558 79.7538C53.9558 79.7538 51.4968 76.8628 51.5476 76.9022C51.4601 76.8553 45.2787 79.5364 45.163 79.6545C44.3324 79.3142 41.5395 78.388 40.3241 80.6641C39.1717 82.8164 41.3212 84.5901 42.2196 85.2134C42.2074 85.2491 42.1998 85.265 42.1998 85.265C42.1998 85.265 40.182 88.8272 40.2055 88.7832C40.2375 88.7241 46.0332 95.7783 46.0332 95.7783C46.0417 95.7624 46.0219 100.32 46.0219 100.34C46.0219 100.34 48.3257 101.883 48.5006 101.931C48.8703 103.661 48.9823 104.555 49.3868 105.494C49.5185 105.794 51.7263 106.437 53.8758 106.472H54.047C56.1881 106.437 58.4053 105.794 58.5285 105.494C58.9377 104.555 59.0497 103.661 59.4147 101.931C59.5972 101.883 61.8859 100.34 61.8859 100.34C61.8896 100.344 61.8859 95.7895 61.8896 95.7783C61.8859 95.7783 67.6862 88.7232 67.7145 88.7832C67.7417 88.8272 65.7239 85.265 65.7239 85.265L65.6985 85.2134" fill="#EC8023"/>
<path d="M45.6606 85.5659L51.0396 85.5031L50.8448 88.5076L45.6606 85.5659ZM57.7496 88.5788L58.5755 95.7717C58.5755 95.7717 54.7854 97.8191 54.5992 97.9185C54.5945 98.12 54.5747 100.317 54.5747 100.487C54.7497 100.618 55.4336 101.129 56.141 101.426C57.4194 101.963 58.6988 101.651 58.7148 101.647L59.0327 101.564L58.7618 102.518L58.6461 102.538C58.5868 102.55 57.1447 102.808 55.9688 102.456C54.951 102.147 54.4195 101.759 54.2765 101.648H53.6613C53.5221 101.751 52.9624 102.147 51.9295 102.456C50.7621 102.808 49.3153 102.55 49.2598 102.538L49.1412 102.518L48.8703 101.564L49.1883 101.647C49.2043 101.651 50.4827 101.963 51.7667 101.426C52.4741 101.129 53.158 100.618 53.3283 100.487L53.3208 97.8894C53.1656 97.7872 49.3557 95.0865 49.3557 95.0865C49.3557 95.0865 56.0855 95.079 56.4477 95.0743V85.6643L62.0495 85.6212L62.7569 85.6165C62.756 85.6175 57.9518 88.4551 57.7496 88.5788" fill="#1D427C"/>
</svg>
